<?xml version="1.0" encoding="UTF-8" standalone="no"?>
<svg
   xmlns:dc="http://purl.org/dc/elements/1.1/"
   xmlns:cc="http://creativecommons.org/ns#"
   xmlns:rdf="http://www.w3.org/1999/02/22-rdf-syntax-ns#"
   xmlns:svg="http://www.w3.org/2000/svg"
   xmlns="http://www.w3.org/2000/svg"
   xmlns:sodipodi="http://sodipodi.sourceforge.net/DTD/sodipodi-0.dtd"
   xmlns:inkscape="http://www.inkscape.org/namespaces/inkscape"
   version="1.1"
   x="0px"
   y="0px"
   width="517.675"
   height="257.497"
   viewBox="0, 0, 517.675, 257.497"
   id="svg2"
   inkscape:version="0.48.4 r9939"
   sodipodi:docname="worldwide.svg">
  <metadata
     id="metadata179">
    <rdf:RDF>
      <cc:Work
         rdf:about="">
        <dc:format>image/svg+xml</dc:format>
        <dc:type
           rdf:resource="http://purl.org/dc/dcmitype/StillImage" />
      </cc:Work>
    </rdf:RDF>
  </metadata>
  <sodipodi:namedview
     pagecolor="#ffffff"
     bordercolor="#666666"
     borderopacity="1"
     objecttolerance="10"
     gridtolerance="10"
     guidetolerance="10"
     inkscape:pageopacity="0"
     inkscape:pageshadow="2"
     inkscape:window-width="1440"
     inkscape:window-height="876"
     id="namedview177"
     showgrid="false"
     inkscape:zoom="2.464867"
     inkscape:cx="280.61308"
     inkscape:cy="131.16928"
     inkscape:window-x="0"
     inkscape:window-y="24"
     inkscape:window-maximized="1"
     inkscape:current-layer="svg2" />
  <g
     id="Layer 1">
    <path
       d="M515.32,217.696 C513.43,216.752 513.43,218.408 512.246,221.954 C511.065,225.503 505.154,226.922 504.207,227.631 C503.26,228.34 501.368,230.467 501.368,230.467 C496.878,233.304 488.127,236.143 490.254,238.509 C492.382,240.873 493.802,239.454 499.004,236.852 C504.207,234.252 505.626,230.941 508.465,229.049 C511.302,227.157 512.957,227.395 515.086,225.029 C517.215,222.663 517.213,218.643 515.32,217.696 M484.342,189.32 C482.215,183.88 482.215,179.624 481.032,177.258 C479.85,174.893 480.794,172.056 477.248,172.056 C475.808,172.056 475.829,173.002 474.646,176.076 C473.465,179.15 474.882,184.827 471.809,184.117 C468.734,183.408 467.316,181.99 466.605,178.915 C465.896,175.841 467.552,173.002 465.188,173.002 C462.822,173.002 456.201,171.347 454.546,173.948 C452.889,176.55 455.017,177.496 451.471,177.496 C447.924,177.496 446.504,177.497 444.613,179.859 C442.721,182.225 440.12,188.846 429.951,189.32 C419.782,189.794 424.985,195.232 424.985,201.143 C424.985,207.055 419.546,210.604 421.912,212.732 C424.275,214.859 421.201,217.699 426.167,216.043 C431.132,214.385 435.627,213.912 443.43,212.732 C451.234,211.549 454.78,211.075 455.017,214.859 C455.254,218.643 454.072,216.043 457.146,216.752 C460.221,217.461 456.912,222.427 460.458,222.901 C464.004,223.373 461.877,225.973 464.951,225.973 C468.026,225.973 469.207,229.284 466.605,229.284 C464.004,229.284 460.222,234.722 464.004,232.833 C467.788,230.941 471.572,230.467 471.572,227.631 C471.572,224.791 471.1,224.555 475.592,221.009 C480.086,217.461 490.491,208.948 489.782,202.091 C489.072,195.232 486.473,194.758 484.342,189.32 M482.688,158.813 C479.613,155.504 474.411,153.137 472.28,153.375 C470.154,153.61 468.26,156.922 467.079,155.739 C465.896,154.556 462.348,148.883 460.457,150.537 C458.566,152.192 460.693,154.084 458.329,154.084 C455.965,154.084 455.254,156.922 454.78,153.137 C454.309,149.353 452.416,147.462 451.943,150.3 C451.471,153.137 451.235,155.03 450.052,152.901 C448.869,150.772 448.159,152.192 448.159,150.063 C448.159,147.935 443.431,145.569 441.54,147.935 C440.356,149.412 439.884,149.59 439.412,152.901 C438.938,156.213 437.754,161.416 440.355,159.997 C442.958,158.577 443.43,159.758 444.613,158.103 C445.796,156.448 447.215,155.504 449.342,156.448 C451.471,157.394 450.526,157.394 454.309,156.922 C458.092,156.448 459.983,156.448 462.586,158.103 C465.188,159.758 470.389,158.813 470.389,160.468 C470.389,162.125 464.951,163.307 470.389,164.962 C475.829,166.617 477.011,170.402 478.667,168.51 C480.322,166.617 482.687,164.015 484.342,165.908 C485.997,167.8 492.382,173.004 491.201,170.164 C490.017,167.327 490.254,164.724 494.04,161.651 C497.822,158.577 496.875,157.159 495.219,157.159 C493.566,157.159 493.566,159.287 489.782,159.758 C485.997,160.232 485.763,162.124 482.688,158.813 M432.789,136.821 C431.358,138.66 428.53,142.732 426.64,144.151 C424.75,145.571 421.437,143.679 421.674,146.99 C421.912,150.3 422.146,151.719 422.382,154.084 C422.62,156.448 423.092,157.868 426.64,157.868 C430.188,157.868 431.841,159.05 433.026,158.577 C434.208,158.103 433.971,155.976 435.389,153.137 C436.809,150.3 439.174,151.01 438.227,148.882 C437.28,146.753 437.28,147.226 437.28,145.097 C437.28,142.968 438.465,144.387 437.754,140.841 C437.046,137.293 434.445,134.693 432.789,136.821 M441.776,128.543 C443.193,129.49 443.43,131.144 443.193,133.746 C442.957,136.347 440.592,136.112 444.613,137.767 C448.632,139.422 453.363,142.26 452.179,137.057 C450.998,131.854 451.943,131.144 447.688,127.125 C443.43,123.105 443.195,125.706 442.721,122.396 C442.248,119.085 441.064,112.935 439.409,115.301 C437.95,117.388 436.81,118.138 438.465,121.686 C440.119,125.233 440.355,127.597 441.776,128.543 M437.517,108.442 C439.174,108.915 439.646,102.057 436.572,103.004 C433.498,103.95 435.576,107.887 437.517,108.442 M323.235,80.02 C320.078,80.02 316.29,79.388 316.29,77.705 L316.29,73.705 C314.606,69.708 312.502,68.865 312.502,66.129 C312.502,63.394 314.185,61.079 317.552,61.079 C320.919,61.079 322.603,60.658 320.078,63.604 C317.552,66.55 315.237,66.761 318.605,71.391 C321.971,76.02 326.391,80.02 323.235,80.02 M303.031,72.234 C299.664,72.022 293.982,70.97 291.246,70.97 C288.51,70.97 287.458,71.391 287.458,71.391 C285.143,70.97 279.671,72.444 282.407,68.865 C285.143,65.288 283.46,60.658 286.827,61.921 C290.194,63.183 290.404,68.024 292.508,65.078 C294.613,62.131 296.928,58.763 297.559,61.079 C298.191,63.394 294.613,65.288 299.033,67.182 C303.452,69.075 306.399,72.444 303.031,72.234 M294.824,88.016 C293.561,90.542 292.93,92.226 291.036,91.594 C289.142,90.962 282.828,91.173 279.671,90.121 C276.515,89.069 271.885,87.175 271.044,89.49 C270.201,91.804 273.148,93.699 267.886,91.804 C262.626,89.911 256.943,87.596 256.312,85.911 C255.68,84.228 258.416,79.598 254.628,79.598 C250.84,79.598 245.579,79.388 243.896,80.651 C242.212,81.913 235.688,84.228 233.583,83.596 C231.67,83.024 228.743,82.335 232.111,80.861 C235.478,79.388 239.476,80.23 239.897,78.125 C240.318,76.02 236.951,75.6 240.318,73.705 C243.685,71.812 242.423,70.129 244.737,69.075 C247.052,68.024 250.209,68.234 251.893,67.604 C253.576,66.971 251.261,66.34 254.628,68.234 C257.995,70.129 260.1,73.705 261.783,73.917 C263.467,74.126 264.519,75.39 263.467,76.231 C262.415,77.073 260.731,77.705 260.1,77.705 C259.468,77.705 259.048,79.388 259.679,79.598 C260.31,79.81 261.783,82.545 262.836,81.703 C263.888,80.861 262.836,79.598 264.73,78.967 C266.623,78.336 268.517,77.494 267.676,76.231 C266.834,74.969 265.993,73.495 267.676,74.337 C269.36,75.179 270.833,74.759 268.939,72.864 C267.045,70.97 266.413,70.97 264.099,69.287 C261.783,67.604 259.258,66.761 259.258,65.499 C259.258,64.236 257.785,61.921 260.1,62.763 C262.415,63.604 270.412,68.024 270.412,69.708 C270.412,71.391 272.516,74.337 270.622,75.81 C268.728,77.284 272.516,77.705 273.358,78.546 C274.199,79.388 273.779,81.703 276.094,81.281 C278.409,80.861 280.093,81.071 278.83,78.756 C277.567,76.441 275.463,75.39 277.567,74.548 C279.671,73.705 280.093,72.654 280.724,76.231 C281.356,79.81 280.513,81.071 285.564,81.281 C290.614,81.493 293.982,80.02 294.613,81.493 C295.245,82.966 296.087,85.491 294.824,88.016 M440.875,169.67 C444.242,170.091 446.767,169.67 449.083,168.408 C451.397,167.145 450.345,165.672 450.134,165.04 C449.924,164.409 448.24,165.672 445.925,166.093 C443.61,166.514 442.979,166.514 440.032,166.724 C437.087,166.934 438.98,165.672 435.824,165.462 C432.668,165.25 429.51,164.62 425.933,163.357 C422.355,162.094 420.461,161.042 417.936,160.2 C415.41,159.358 417.725,157.884 417.514,154.308 C417.304,150.73 414.989,152.203 413.095,150.94 C411.202,149.677 411.833,146.942 412.674,147.783 C413.516,148.626 413.727,149.677 413.727,145.258 C413.727,140.84 409.728,137.892 407.203,134.105 C404.677,130.316 405.098,128.211 405.308,126.318 C405.519,124.425 409.939,128.001 412.254,130.737 C414.569,133.473 414.569,133.473 415.832,132.842 C417.094,132.211 420.882,130.106 421.723,126.739 C422.565,123.371 414.989,116.638 413.938,113.48 C412.884,110.324 415.41,112.218 416.674,110.113 C417.936,108.008 419.409,110.956 418.567,112.428 C417.725,113.902 418.777,114.744 419.62,116.217 C420.461,117.69 420.461,116.217 421.303,114.323 C422.145,112.428 421.513,111.798 422.986,110.534 C424.46,109.271 430.142,107.588 431.615,106.114 C433.089,104.642 434.14,102.958 436.034,97.697 C437.928,92.436 435.824,92.647 434.982,90.752 C434.14,88.857 431.615,85.701 430.142,83.806 C428.669,81.913 429.931,82.335 430.983,81.703 C432.036,81.071 431.194,79.598 428.669,78.756 C426.143,77.915 426.564,79.598 424.25,79.177 C421.934,78.756 423.197,77.073 425.722,74.126 C428.248,71.18 426.985,74.759 428.669,76.02 C430.352,77.284 430.773,74.969 432.036,75.6 C433.299,76.231 435.824,77.494 437.718,80.02 C439.612,82.545 439.612,85.491 441.507,85.281 C443.4,85.071 443.4,84.228 444.242,82.335 C445.083,80.44 441.927,78.756 440.454,77.284 C438.98,75.81 437.508,75.81 438.769,74.548 C440.032,73.285 438.98,71.391 439.612,69.919 C440.244,68.445 442.559,69.287 444.873,68.234 C447.189,67.182 447.398,63.604 447.398,59.816 C447.398,56.028 445.505,54.345 444.452,53.082 C443.4,51.818 445.715,52.45 447.608,53.923 C449.503,55.397 452.449,63.394 453.081,66.55 C453.712,69.708 453.291,69.708 455.816,72.444 C458.341,75.179 457.5,74.759 456.659,77.915 C455.816,81.071 453.712,81.913 450.555,82.756 C447.398,83.596 448.451,84.228 446.557,87.385 C444.663,90.542 447.608,90.752 449.293,91.594 C450.976,92.436 451.818,89.279 453.923,87.806 C456.026,86.333 458.341,85.281 461.92,85.281 C465.497,85.281 460.867,80.44 460.657,77.915 C460.446,75.39 460.236,73.705 459.394,71.812 C458.551,69.919 460.236,69.919 462.761,68.654 C465.287,67.393 465.077,64.868 463.604,64.868 C462.13,64.868 460.867,65.919 457.5,65.709 C454.133,65.499 454.975,62.763 454.133,61.711 C453.291,60.658 452.239,58.343 452.028,56.448 C451.818,54.554 448.872,52.03 446.767,50.136 C444.663,48.242 443.4,46.979 443.4,47.821 C443.4,48.662 442.137,47.611 439.191,47.4 C436.245,47.191 435.613,47.821 433.089,47.611 C430.563,47.4 433.299,43.191 434.35,40.245 C435.403,37.299 438.349,38.982 440.665,38.982 C442.979,38.982 444.031,39.193 447.398,40.034 C450.765,40.876 449.293,37.93 449.924,35.615 C450.555,33.3 452.028,34.563 453.923,35.405 C455.816,36.246 456.448,36.456 456.448,34.563 C456.448,32.67 458.132,32.248 459.604,33.931 C461.077,35.615 457.079,39.193 457.079,39.193 C457.079,39.193 455.816,42.981 458.132,44.242 C460.446,45.506 465.077,50.977 467.812,52.872 C470.548,54.765 468.654,49.715 468.654,46.137 C468.654,42.56 466.128,42.981 464.234,39.613 C462.341,36.246 463.604,37.72 467.18,37.72 C470.757,37.72 470.969,36.456 471.81,35.405 C472.653,34.351 473.285,34.141 476.44,34.141 C479.596,34.141 477.703,32.88 476.23,31.195 C474.757,29.512 471.81,29.934 472.863,28.88 C473.915,27.829 479.596,29.512 482.334,30.565 C485.069,31.616 484.437,30.775 484.016,28.25 C483.596,25.724 481.281,27.617 474.546,25.092 C467.812,22.568 460.446,21.094 458.132,21.094 C455.816,21.094 457.5,19.621 459.183,19.621 C460.867,19.621 460.446,18.148 458.763,17.306 C457.079,16.464 455.606,17.096 454.975,18.989 C454.343,20.883 456.869,21.094 452.028,21.094 C447.189,21.094 443.61,21.094 437.928,20.042 C432.246,18.989 430.142,18.989 425.3,18.779 C420.461,18.569 420.882,16.464 415.832,16.464 C410.78,16.464 412.465,14.569 410.36,12.256 C408.255,9.94 407.203,10.572 400.89,10.572 C394.576,10.572 397.944,13.097 399.205,13.518 C400.469,13.939 403.836,14.991 406.151,17.096 C408.466,19.199 401.942,18.359 399.205,18.569 C396.47,18.779 396.681,17.096 393.524,15.201 C390.367,13.308 382.581,14.359 378.161,14.149 C373.741,13.939 373.531,14.149 371.848,10.993 C370.164,7.836 366.587,9.519 361.956,9.519 C357.327,9.519 354.801,7.203 352.487,5.732 C350.172,4.258 346.594,4.048 341.543,3.207 C336.493,2.364 339.228,6.363 341.122,6.573 C341.122,6.573 343.227,7.415 345.331,7.625 C347.436,7.836 351.856,8.047 354.171,10.782 C356.485,13.518 347.014,12.466 342.805,14.78 C338.597,17.096 335.23,16.043 332.284,17.306 C329.337,18.569 333.757,20.674 334.809,23.409 C335.861,26.145 334.809,26.145 332.915,26.777 C331.02,27.407 333.547,23.83 332.705,22.779 C331.863,21.725 328.706,16.254 326.181,14.569 C323.654,12.887 324.076,16.043 324.498,18.359 C324.917,20.674 325.549,20.674 326.181,22.357 C326.812,24.04 323.445,22.357 321.761,21.094 C320.078,19.831 314.606,22.779 312.081,21.514 C309.555,20.253 312.922,20.674 312.922,19.409 C312.922,18.148 309.976,19.199 309.134,17.306 C308.293,15.413 314.396,13.097 318.184,12.466 C321.971,11.834 321.55,11.834 321.55,9.94 C321.55,8.047 314.816,8.677 309.134,11.413 C303.452,14.149 304.925,16.043 304.084,17.938 C303.241,19.831 305.977,20.042 307.24,21.094 C308.503,22.146 305.767,22.568 303.241,23.409 C300.716,24.25 300.085,23.409 297.139,24.462 C294.193,25.514 295.876,26.777 293.35,27.829 C290.825,28.88 291.036,28.88 288.931,29.722 C286.827,30.565 289.352,26.565 292.299,26.145 C295.245,25.724 294.403,24.04 293.561,23.409 C292.719,22.779 287.248,21.094 281.356,19.409 C275.463,17.728 265.993,20.042 262.836,21.514 C259.679,22.988 259.889,24.04 259.468,26.145 C259.048,28.25 251.893,31.405 248.315,33.3 C244.737,35.195 247.894,37.72 248.946,39.403 C249.999,41.086 252.313,40.245 255.26,39.403 C258.206,38.561 257.785,42.139 258.206,43.402 C258.627,44.664 260.31,44.876 263.047,43.612 C265.782,42.349 265.151,39.403 265.151,37.72 C265.151,36.036 264.519,35.195 266.413,32.88 C268.308,30.565 269.991,29.091 271.674,28.039 C273.358,26.986 273.148,28.88 270.622,30.985 C268.097,33.09 269.781,33.72 271.044,36.246 C272.306,38.771 274.831,36.246 277.988,35.825 C281.145,35.405 275.253,38.561 272.937,38.561 C270.622,38.561 272.937,41.086 271.464,41.086 C269.991,41.086 269.781,42.139 269.57,44.664 C269.36,47.191 268.517,46.559 266.834,47.191 C265.151,47.821 262.626,48.031 259.889,47.4 C257.153,46.769 257.364,44.242 255.47,42.56 C253.576,40.876 253.155,43.402 253.155,44.454 C253.155,45.506 251.261,47.821 250.42,47.821 C249.577,47.821 247.052,50.347 245.579,52.45 C244.106,54.554 243.054,53.293 242.632,52.45 C242.212,51.608 243.685,50.347 242.844,48.242 C242.001,46.137 238.634,44.454 239.686,39.613 C240.739,34.773 238.424,37.299 235.056,37.72 C231.689,38.14 230.637,39.613 230.427,40.876 C230.216,42.139 228.322,44.664 226.217,46.979 C224.113,49.294 225.586,51.188 226.639,53.713 C227.691,56.238 230.427,52.872 231.269,50.767 C232.111,48.662 233.163,47.611 234.425,48.662 C235.688,49.715 232.531,51.608 232.111,54.133 C231.689,56.66 232.952,56.448 235.899,55.608 C238.845,54.765 237.372,54.133 239.686,55.187 C242.001,56.238 237.582,57.08 234.846,57.292 C232.111,57.502 233.163,59.396 235.478,61.079 C237.793,62.763 236.741,65.288 235.267,65.499 C233.794,65.709 231.058,66.129 226.85,66.971 C222.64,67.814 226.428,71.18 225.586,73.074 C224.745,74.969 224.534,79.177 226.428,79.388 C228.322,79.598 228.322,82.756 227.27,83.806 C226.217,84.86 226.007,85.911 223.482,87.806 C220.956,89.701 222.851,91.384 222.009,93.909 C221.167,96.434 219.063,94.962 216.537,97.697 C214.012,100.433 212.96,102.538 211.066,105.694 C209.172,108.851 208.961,109.061 211.277,112.849 C213.591,116.638 211.277,117.69 209.382,121.056 C207.488,124.425 210.014,124.635 210.855,127.581 C211.697,130.526 213.381,129.896 214.012,132.842 C214.643,135.787 215.485,136.631 218.431,138.734 C221.377,140.84 224.323,143.786 225.797,143.154 C227.27,142.522 229.585,140.84 234.425,141.05 C239.265,141.26 237.582,138.944 242.632,138.102 C247.683,137.261 244.947,138.734 245.579,140.207 C246.21,141.681 248.946,143.154 252.734,143.365 C256.522,143.575 253.365,148.204 253.155,151.151 C252.945,154.097 253.155,154.097 255.049,156.623 C256.943,159.148 259.468,164.83 260.1,167.775 C260.731,170.722 259.468,174.09 257.785,176.826 C256.102,179.56 256.733,185.875 260.31,190.506 C263.888,195.133 261.783,194.923 261.783,199.763 C261.783,204.603 264.309,203.762 266.203,206.498 C268.097,209.234 267.255,214.284 268.939,217.02 C270.622,219.756 273.569,217.23 276.936,215.968 C280.303,214.705 281.776,215.128 285.774,212.179 C289.773,209.234 292.93,203.342 292.93,201.658 C292.93,199.973 294.193,199.342 296.297,198.502 C298.402,197.661 297.981,192.187 297.77,190.716 C297.559,189.241 298.191,187.98 299.033,187.136 C299.874,186.296 305.136,181.245 307.03,179.14 C308.924,177.036 307.24,174.09 306.82,170.722 C306.399,167.355 305.136,166.093 305.136,162.094 C305.136,158.094 303.873,158.516 310.818,151.993 C317.762,145.468 324.287,135.156 324.917,132.842 C325.549,130.526 325.339,128.633 324.917,126.95 C324.498,125.265 315.447,128.633 313.343,128.633 C311.238,128.633 307.451,124.003 307.03,122.32 C306.61,120.635 303.452,118.952 300.716,116.427 C297.981,113.902 300.085,110.324 297.981,107.588 C295.876,104.853 294.824,100.853 294.403,98.538 C293.982,96.224 297.559,100.222 300.296,103.379 C303.031,106.536 306.61,112.428 307.661,114.533 C308.713,116.638 309.555,119.794 309.765,122.32 C309.976,124.845 311.659,125.265 314.185,125.055 C316.71,124.845 325.549,120.215 328.706,118.742 C331.863,117.269 335.651,112.849 337.124,108.641 C338.597,104.432 333.967,105.063 331.863,102.958 C329.758,100.853 329.758,102.958 327.233,103.59 C324.708,104.22 322.603,100.853 318.605,97.067 C314.606,93.277 317.132,94.541 317.973,93.699 C318.814,92.857 322.813,95.592 325.128,98.328 C327.444,101.063 327.864,100.012 330.6,100.012 C333.336,100.012 333.967,101.275 337.545,102.327 C341.122,103.379 343.016,101.907 346.075,102.231 C349.136,102.555 348.698,104.01 350.803,107.378 C352.907,110.744 352.066,109.693 356.695,110.113 C361.325,110.534 357.958,110.113 357.958,113.059 C357.958,116.005 358.379,117.059 361.115,120.635 C363.851,124.213 364.903,130.947 365.745,134.316 C366.587,137.682 368.27,134.316 371.006,134.316 C373.741,134.316 371.216,136.631 373.321,139.997 C375.425,143.365 376.899,138.944 376.899,137.682 C376.899,136.419 375.636,133.263 374.373,132.211 C373.11,131.158 371.427,131.368 372.9,129.685 C374.373,128.001 373.11,126.318 373.11,124.003 C373.11,121.688 373.321,120.005 374.373,118.952 C375.425,117.9 379.213,114.112 381.528,111.376 C383.843,108.641 385.737,108.219 388.894,108.429 C392.05,108.641 389.525,109.061 391.419,111.587 C393.314,114.112 393.734,117.69 395.839,120.215 C397.944,122.74 398.154,119.794 399.837,118.952 C401.521,118.11 400.469,121.477 401.731,124.003 C402.994,126.529 402.152,129.896 402.152,132.211 C402.152,134.526 404.888,136.84 406.572,138.944 C408.255,141.05 407.624,142.102 406.572,142.943 C405.519,143.786 403.415,140.84 401.731,139.156 C400.048,137.471 397.522,138.524 399.205,140.418 C400.89,142.312 401.942,145.678 403.836,149.258 C405.73,152.834 409.728,157.044 412.465,160.832 C415.199,164.62 424.039,166.302 427.406,166.302 C430.773,166.302 437.508,169.25 440.875,169.67 M295.455,6.573 C295.455,6.573 294.403,8.047 296.928,8.047 C299.454,8.047 304.715,6.363 308.924,6.363 C313.133,6.363 311.87,4.889 311.028,4.889 C310.187,4.889 307.871,2.576 304.505,2.785 C301.137,2.996 301.348,4.468 299.244,4.468 C297.139,4.468 297.559,3.837 293.141,4.048 C288.721,4.258 293.141,6.152 295.455,6.573 M261.351,11.043 C261.577,11.107 261.802,11.127 261.994,11.203 C264.099,12.045 265.571,10.782 265.782,9.098 C268.097,5.732 267.255,11.834 269.781,10.782 C272.306,9.73 275.883,7.203 278.83,5.732 C281.776,4.258 275.253,4.889 269.991,4.048 C264.73,3.207 257.364,4.679 255.26,6.152 C253.298,7.525 258.278,10.175 261.351,11.043 M221.167,25.304 C214.854,26.145 208.961,24.04 210.014,27.407 C211.066,30.775 211.277,35.825 214.643,34.773 C220.426,32.966 226.85,32.037 225.376,29.3 C223.903,26.565 227.48,24.462 221.167,25.304 M216.958,20.463 C219.273,17.938 218.642,16.674 221.799,15.413 C224.955,14.149 224.113,12.466 223.692,9.94 C223.271,7.415 223.692,8.467 224.955,7.625 C226.217,6.783 228.112,6.152 231.058,5.942 C234.004,5.732 231.269,4.679 231.269,3.417 C231.269,2.154 229.165,2.364 226.217,2.785 C223.271,3.207 223.692,2.785 221.588,1.943 C219.484,1.102 207.067,1.102 203.911,1.102 C200.754,1.102 195.071,1.732 192.125,1.943 C189.179,2.154 189.39,1.943 183.708,1.312 C178.025,0.681 163.084,1.102 157.612,1.732 C152.14,2.364 148.142,2.996 144.563,5.311 C140.986,7.625 138.672,6.783 134.673,7.203 C130.674,7.625 130.254,7.625 128.36,7.625 C126.466,7.625 126.676,6.573 123.309,7.836 C119.942,9.098 120.994,9.94 119.731,8.257 C118.468,6.573 116.785,8.257 110.892,9.73 C105,11.203 112.997,12.887 114.891,13.518 C114.891,13.518 118.889,13.308 121.205,12.677 C123.52,12.045 124.571,13.518 126.045,13.097 C127.518,12.677 127.939,11.203 136.357,9.308 C144.775,7.415 150.666,8.888 154.034,10.362 C157.402,11.834 157.402,10.993 160.348,9.098 C163.294,7.203 168.345,5.732 173.606,4.889 C178.867,4.048 175.5,5.942 172.133,7.203 C168.766,8.467 165.82,8.047 166.45,10.151 C167.082,12.256 173.606,11.623 175.5,11.623 C177.394,11.623 177.605,14.569 177.815,16.254 C178.025,17.938 177.605,18.779 178.025,20.463 C178.446,22.146 179.499,21.936 177.605,23.619 C175.711,25.304 174.657,25.092 174.657,28.039 C174.657,30.985 175.921,34.141 178.867,36.246 C181.813,38.351 183.497,38.561 185.181,35.195 C186.864,31.827 190.862,29.722 192.967,28.67 C195.071,27.617 198.018,28.67 200.754,26.145 C203.489,23.619 207.067,24.672 211.066,23.409 C215.064,22.146 214.643,22.988 216.958,20.463 M178.025,158.728 C174.237,157.675 174.027,158.938 173.606,156.834 C173.185,154.728 170.66,154.728 168.345,154.728 C166.03,154.728 165.188,154.518 163.294,152.834 C161.4,151.151 157.402,150.94 156.139,150.518 C154.876,150.098 155.507,146.52 152.983,143.154 C150.457,139.787 145.195,139.156 141.828,137.261 C138.462,135.367 139.513,128.001 134.673,128.633 C129.833,129.265 129.411,131.158 124.992,128.843 C120.573,126.529 117.627,125.055 115.312,126.739 C112.997,128.423 110.051,131.579 108.577,132.421 C107.105,133.263 104.578,131.79 103.106,132.001 C101.632,132.211 99.949,130.526 98.897,129.055 C97.845,127.581 100.791,120.215 98.056,120.215 C95.32,120.215 91.742,118.952 91.742,117.9 C91.742,116.847 97.424,110.534 95.74,109.483 C94.057,108.429 90.689,109.061 87.743,113.059 C84.797,117.059 82.061,116.847 80.588,115.374 C79.114,113.902 75.748,105.273 78.483,100.433 C81.218,95.592 85.638,93.277 89.006,93.488 C92.373,93.699 91.952,92.647 95.32,92.436 C98.686,92.226 102.895,93.277 103.737,94.541 C104.578,95.802 102.895,97.907 105,100.433 C107.105,102.958 108.367,101.907 108.577,102.958 C108.788,104.01 106.894,105.063 106.052,105.063 C105.211,105.063 98.265,106.958 101.001,108.219 C103.737,109.483 108.577,108.429 109.63,110.113 C110.682,111.798 106.263,115.374 112.576,115.585 C118.889,115.795 123.098,116.638 126.676,116.847 C130.254,117.059 132.779,117.269 133.2,118.11 C133.621,118.952 136.146,114.954 130.254,114.954 C124.361,114.954 119.731,111.587 116.574,110.956 C113.418,110.324 111.314,108.219 111.103,105.694 C110.892,103.168 111.314,101.275 110.051,99.17 C108.788,97.067 105.632,92.016 108.577,89.911 C111.524,87.806 117.417,83.806 118.889,81.071 C120.362,78.336 120.362,77.705 123.729,75.6 C127.097,73.495 131.096,70.759 132.989,68.865 C134.883,66.971 138.04,64.025 138.672,65.499 C139.303,66.971 142.249,67.393 145.827,66.129 C149.405,64.868 153.823,61.711 150.036,61.711 C146.248,61.711 143.932,60.658 144.985,59.185 C146.037,57.713 142.46,57.08 141.407,57.292 C140.355,57.502 140.355,55.187 143.932,54.554 C147.51,53.923 144.563,57.08 147.51,56.87 C150.457,56.66 152.351,54.345 154.456,53.923 C156.559,53.503 157.402,55.397 154.665,57.292 C151.929,59.185 151.088,58.553 154.665,59.396 C158.243,60.238 159.295,62.131 161.4,60.238 C163.505,58.343 160.979,57.713 160.768,55.187 C160.558,52.662 161.189,48.031 158.874,46.347 C156.559,44.664 156.559,42.56 156.559,40.876 C156.559,39.193 156.981,35.615 154.665,37.299 C152.351,38.982 150.457,40.034 149.615,39.193 C148.773,38.351 150.036,36.666 148.142,35.405 C146.248,34.141 146.037,32.248 143.722,32.458 C141.407,32.67 139.092,30.775 137.83,33.51 C136.567,36.246 135.304,38.561 134.883,39.403 C134.463,40.245 136.357,43.191 134.673,44.664 C132.989,46.137 128.36,48.242 127.728,49.715 C127.097,51.188 124.571,54.977 123.94,52.45 C123.309,49.926 126.045,46.137 122.257,45.085 C118.468,44.032 115.522,44.876 114.891,42.56 C114.259,40.245 112.576,38.14 116.363,36.246 C120.152,34.351 123.94,30.985 127.518,30.565 C131.096,30.144 128.57,33.09 131.517,32.88 C134.463,32.67 131.096,31.195 134.673,30.565 C138.251,29.934 137.62,29.934 136.567,28.67 C135.515,27.407 136.146,27.197 138.882,25.934 C141.617,24.672 139.513,23.83 142.249,22.779 C144.985,21.725 145.616,20.674 147.09,20.674 C148.562,20.674 148.352,21.304 147.51,23.199 C146.669,25.092 146.037,26.355 148.562,25.092 C151.088,23.83 152.351,22.988 150.457,24.882 C148.562,26.777 147.299,26.777 144.563,27.197 C141.828,27.617 142.67,28.039 143.932,29.512 C145.195,30.985 148.352,31.195 149.405,32.037 C150.457,32.88 151.719,35.825 154.245,34.351 C156.77,32.88 154.876,32.67 158.243,31.195 C161.61,29.722 166.45,28.88 166.03,26.986 C165.609,25.092 162.242,24.04 161.82,21.725 C161.4,19.409 166.45,18.148 159.926,17.096 C153.403,16.043 157.191,15.201 154.034,15.201 C150.877,15.201 144.985,15.201 142.88,16.254 C140.776,17.306 139.513,15.623 138.462,17.306 C137.409,18.989 138.672,21.304 137.62,21.304 C136.567,21.304 134.673,22.988 133.831,21.304 C132.989,19.621 131.096,17.938 133.621,17.306 C136.146,16.674 136.567,17.096 136.988,15.201 C137.409,13.308 133.41,13.518 135.725,13.097 C138.04,12.677 139.092,13.308 142.249,13.308 C145.406,13.308 152.561,14.569 153.613,12.677 C154.665,10.782 151.929,10.782 148.773,10.572 C145.616,10.362 140.145,9.308 137.83,10.362 C135.515,11.413 132.569,13.097 131.517,14.78 C130.465,16.464 130.465,14.359 128.36,14.78 C126.255,15.201 122.677,17.516 124.571,18.779 C126.466,20.042 126.466,21.514 124.361,21.514 C122.257,21.514 121.625,23.619 120.152,23.619 C118.679,23.619 114.68,23.409 116.574,22.357 C118.468,21.304 120.573,21.304 120.362,18.779 C120.152,16.254 122.466,15.413 122.466,14.569 C122.466,13.728 117.417,16.464 113.418,15.201 C109.419,13.939 107.736,12.045 103.737,12.256 C99.738,12.466 94.478,17.728 97.003,18.148 C99.528,18.569 101.423,17.728 101.843,18.989 C102.264,20.253 101.423,21.304 102.895,21.936 C104.368,22.568 107.105,24.25 103.527,23.409 C99.949,22.568 101.632,21.094 96.161,20.883 C90.689,20.674 87.322,18.989 81.64,20.463 C75.958,21.936 76.799,23.199 73.012,21.936 C69.224,20.674 61.226,17.728 54.914,18.989 C48.6,20.253 40.814,22.357 38.92,23.619 C37.026,24.882 40.814,26.145 37.446,26.355 C34.079,26.565 26.082,26.355 27.766,28.46 C29.449,30.565 31.554,30.775 29.028,31.195 C26.503,31.616 23.135,31.827 21.874,33.72 C20.61,35.615 15.98,36.666 18.927,37.51 C21.874,38.351 26.714,40.245 24.609,40.456 C22.504,40.666 11.771,44.876 7.141,45.927 C2.512,46.979 -1.277,52.03 2.722,50.557 C7.8,48.688 21.452,44.454 23.978,43.402 C26.503,42.349 27.555,43.191 27.344,44.664 C27.134,46.137 30.291,44.032 32.817,42.139 C35.341,40.245 35.341,36.456 37.446,37.72 C39.551,38.982 40.814,37.72 42.497,37.299 C44.18,36.878 45.864,35.825 47.337,36.666 C48.81,37.51 52.598,38.351 53.65,39.193 C54.703,40.034 55.124,41.928 54.072,42.139 C53.019,42.349 52.809,43.402 53.019,45.085 C53.231,46.769 54.072,48.242 51.967,48.662 C49.863,49.083 50.283,51.608 51.546,51.398 C52.809,51.188 53.65,50.557 53.861,49.294 C54.072,48.031 56.807,45.717 56.386,47.4 C55.966,49.083 54.914,50.767 54.914,52.03 C54.914,53.293 53.44,53.082 53.231,54.345 C53.019,55.608 53.44,55.608 54.492,56.66 C55.545,57.713 54.914,58.343 54.703,60.658 C54.492,62.973 48.179,69.287 47.337,71.391 C46.495,73.495 46.917,76.441 46.917,78.756 C46.917,81.071 46.074,84.018 48.389,84.86 C50.705,85.701 50.915,86.122 50.915,88.227 C50.915,90.331 50.915,92.857 52.177,94.33 C53.44,95.802 52.809,95.592 52.809,97.907 C52.809,100.222 54.281,98.96 54.492,100.853 C54.703,102.748 53.44,103.59 55.545,105.063 C57.649,106.536 59.964,107.588 58.912,105.273 C57.86,102.958 57.228,101.063 56.175,97.697 C55.124,94.33 54.492,88.227 55.755,90.121 C57.018,92.016 58.702,97.697 60.595,101.696 C62.489,105.694 64.804,105.273 64.804,108.219 C64.804,111.166 62.489,113.902 67.119,115.795 C71.749,117.69 75.116,121.688 77.852,121.267 C80.588,120.845 82.272,119.164 83.324,121.056 C84.376,122.95 86.691,125.476 89.216,125.476 C91.742,125.476 92.583,127.16 93.004,129.685 C93.425,132.211 95.109,132.631 97.634,133.473 C100.16,134.316 100.791,137.051 102.685,136.84 C104.578,136.631 107.105,135.787 107.105,137.682 C107.105,139.577 107.946,144.207 104.789,147.152 C101.632,150.098 100.16,152.203 101.843,154.097 C103.527,155.991 102.054,157.884 101.212,159.358 C100.37,160.832 101.843,162.094 103.527,164.409 C105.211,166.724 107.526,169.46 108.998,174.09 C110.472,178.719 112.576,180.404 116.153,181.876 C119.731,183.349 122.466,185.875 122.466,189.452 C122.466,193.031 122.257,205.234 122.257,208.813 C122.257,212.389 124.151,215.968 123.52,218.705 C122.888,221.44 123.52,223.755 124.361,224.806 C125.203,225.86 124.992,228.175 125.203,230.49 C125.414,232.805 127.939,231.121 127.939,233.225 C127.939,235.331 126.887,238.486 128.149,239.538 C129.411,240.592 126.676,244.378 132.358,247.957 C138.04,251.534 138.462,251.744 138.882,252.377 C139.303,253.008 141.196,251.113 141.196,252.164 C141.196,253.217 138.04,256.374 143.932,256.374 C149.825,256.374 153.403,257.217 149.825,254.479 C146.248,251.744 144.143,253.008 143.511,250.272 C142.88,247.537 142.039,247.957 141.617,246.062 C141.196,244.168 143.091,243.327 142.46,241.432 C141.828,239.538 139.303,239.538 139.513,237.645 C139.724,235.751 141.196,233.856 141.617,233.015 C142.039,232.172 142.039,231.331 140.986,230.49 C139.934,229.646 140.145,229.436 141.617,229.015 C143.091,228.595 143.301,229.226 143.932,227.121 C144.563,225.019 146.458,225.229 147.299,224.595 C148.142,223.966 151.088,223.125 150.036,220.388 C148.984,217.653 146.879,216.389 149.194,216.389 C151.508,216.389 153.823,216.179 155.297,213.233 C156.77,210.288 156.139,209.654 157.822,207.342 C159.506,205.026 159.716,203.132 159.716,201.448 C159.716,199.763 158.874,198.082 161.189,197.027 C163.505,195.976 171.081,194.713 172.133,191.556 C173.185,188.4 174.237,185.032 173.816,181.666 C173.396,178.299 173.185,176.195 175.5,173.458 C177.815,170.722 180.761,168.408 180.761,165.883 C180.761,163.357 181.813,159.779 178.025,158.728"
       id="path5"
       fill="#3E3E3D" />
    <g
       id="g19" />
    <g
       id="g25" />
    <g
       id="g31" />
    <g
       id="g41" />
    <g
       id="g47" />
    <g
       id="g57" />
    <g
       id="g65" />
    <g
       id="g73" />
    <g
       id="g79" />
    <g
       id="g89" />
    <g
       id="g97" />
    <g
       id="g105" />
    <g
       id="g111" />
    <g
       id="g119" />
    <g
       id="g127" />
    <g
       id="g133" />
    <g
       id="g141" />
    <g
       id="g147" />
    <g
       id="g155" />
    <g
       id="g161" />
    <g
       id="g167">
      <path
         d="m 433.73153,107.39831 c 0,0.723 -3.55,1.31 -7.929,1.31 -4.38,0 -7.929,-0.587 -7.929,-1.31 0,-0.724 3.549,-1.311 7.929,-1.311 4.379,0 7.929,0.587 7.929,1.311"
         id="path169"
         inkscape:connector-curvature="0"
         style="fill:#2f2f2f" />
      <path
         d="m 435.71073,91.289307 c 0.036,-0.389 0.031,-0.602 0.031,-0.602 0,-5.204 -4.256,-9.423 -9.505,-9.423 -5.25,0 -9.506,4.219 -9.506,9.423 0,0.303 0.019,0.608 0.047,0.914 0.003,0.037 0.008,0.073 0.012,0.11 0.757,7.538 9.447,15.687003 9.447,15.687003 6.107,-5.745 8.29,-10.876003 9.071,-13.892003 0.223,-0.706 0.354,-1.45 0.403,-2.217"
         id="path171"
         inkscape:connector-curvature="0"
         style="fill:#d94d4d" />
      <path
         d="m 432.47473,89.986606 c 0,3.416 -2.793,6.184 -6.238,6.184 -3.445,0 -6.238,-2.768 -6.238,-6.184 0,-3.415 2.793,-6.183 6.238,-6.183 3.445,0 6.238,2.768 6.238,6.183"
         id="path173"
         inkscape:connector-curvature="0"
         style="fill:#f5dede" />
    </g>
  </g>
  <defs
     id="defs175" />
  <text
     xml:space="preserve"
     style="font-size:9px;font-style:normal;font-weight:normal;line-height:125%;letter-spacing:0px;word-spacing:0px;fill:#333333;fill-opacity:1;stroke:none;font-family:Sans"
     x="437.34613"
     y="100.08485"
     id="text3160"
     sodipodi:linespacing="125%"><tspan
       sodipodi:role="line"
       id="tspan3162"
       x="437.34613"
       y="100.08485"
       style="font-size:6px;font-style:normal;font-variant:normal;font-weight:bold;font-stretch:condensed;font-family:Liberation Sans Narrow;-inkscape-font-specification:Liberation Sans Narrow Bold Condensed;fill:#333333">Guangzhou, Guangdong</tspan></text>
</svg>
